<mxfile host="app.diagrams.net" agent="Mozilla/5.0 (Windows NT 10.0; Win64; x64) AppleWebKit/537.36 (KHTML, like Gecko) Chrome/135.0.0.0 Safari/537.36" version="26.2.1">
  <diagram name="Pagina-1" id="9hEq_nUvkFcCaTEEqoqm">
    <mxGraphModel dx="1683" dy="979" grid="0" gridSize="10" guides="1" tooltips="1" connect="1" arrows="1" fold="1" page="0" pageScale="1" pageWidth="2339" pageHeight="3300" math="0" shadow="0">
      <root>
        <mxCell id="0" />
        <mxCell id="1" parent="0" />
        <mxCell id="L7sGw7zIHXGfX-_J5yen-1" value="" style="ellipse;whiteSpace=wrap;html=1;aspect=fixed;" vertex="1" parent="1">
          <mxGeometry x="-65" y="-18" width="40" height="40" as="geometry" />
        </mxCell>
        <mxCell id="L7sGw7zIHXGfX-_J5yen-2" value="" style="ellipse;whiteSpace=wrap;html=1;aspect=fixed;" vertex="1" parent="1">
          <mxGeometry x="-153" y="77" width="40" height="40" as="geometry" />
        </mxCell>
        <mxCell id="L7sGw7zIHXGfX-_J5yen-5" value="" style="ellipse;whiteSpace=wrap;html=1;aspect=fixed;" vertex="1" parent="1">
          <mxGeometry x="27" y="77" width="40" height="40" as="geometry" />
        </mxCell>
        <mxCell id="L7sGw7zIHXGfX-_J5yen-11" value="" style="endArrow=classic;html=1;rounded=0;fontSize=12;startSize=8;endSize=8;curved=1;exitX=1;exitY=1;exitDx=0;exitDy=0;entryX=0;entryY=0;entryDx=0;entryDy=0;" edge="1" parent="1" source="L7sGw7zIHXGfX-_J5yen-1" target="L7sGw7zIHXGfX-_J5yen-5">
          <mxGeometry width="50" height="50" relative="1" as="geometry">
            <mxPoint x="116" y="140" as="sourcePoint" />
            <mxPoint x="166" y="90" as="targetPoint" />
          </mxGeometry>
        </mxCell>
        <mxCell id="L7sGw7zIHXGfX-_J5yen-12" value="" style="endArrow=classic;html=1;rounded=0;fontSize=12;startSize=8;endSize=8;curved=1;exitX=0;exitY=1;exitDx=0;exitDy=0;entryX=1;entryY=0;entryDx=0;entryDy=0;" edge="1" parent="1" source="L7sGw7zIHXGfX-_J5yen-1" target="L7sGw7zIHXGfX-_J5yen-2">
          <mxGeometry width="50" height="50" relative="1" as="geometry">
            <mxPoint x="116" y="140" as="sourcePoint" />
            <mxPoint x="166" y="90" as="targetPoint" />
          </mxGeometry>
        </mxCell>
        <mxCell id="L7sGw7zIHXGfX-_J5yen-13" value="" style="ellipse;whiteSpace=wrap;html=1;aspect=fixed;" vertex="1" parent="1">
          <mxGeometry x="-193" y="158" width="40" height="40" as="geometry" />
        </mxCell>
        <mxCell id="L7sGw7zIHXGfX-_J5yen-14" value="" style="ellipse;whiteSpace=wrap;html=1;aspect=fixed;" vertex="1" parent="1">
          <mxGeometry x="-113" y="158" width="40" height="40" as="geometry" />
        </mxCell>
        <mxCell id="L7sGw7zIHXGfX-_J5yen-15" value="" style="ellipse;whiteSpace=wrap;html=1;aspect=fixed;" vertex="1" parent="1">
          <mxGeometry x="-13" y="158" width="40" height="40" as="geometry" />
        </mxCell>
        <mxCell id="L7sGw7zIHXGfX-_J5yen-16" value="" style="ellipse;whiteSpace=wrap;html=1;aspect=fixed;" vertex="1" parent="1">
          <mxGeometry x="67" y="158" width="40" height="40" as="geometry" />
        </mxCell>
        <mxCell id="L7sGw7zIHXGfX-_J5yen-17" value="" style="endArrow=classic;html=1;rounded=0;fontSize=12;startSize=8;endSize=8;curved=1;exitX=0;exitY=1;exitDx=0;exitDy=0;entryX=0.5;entryY=0;entryDx=0;entryDy=0;" edge="1" parent="1" source="L7sGw7zIHXGfX-_J5yen-2" target="L7sGw7zIHXGfX-_J5yen-13">
          <mxGeometry width="50" height="50" relative="1" as="geometry">
            <mxPoint x="116" y="140" as="sourcePoint" />
            <mxPoint x="166" y="90" as="targetPoint" />
          </mxGeometry>
        </mxCell>
        <mxCell id="L7sGw7zIHXGfX-_J5yen-18" value="" style="endArrow=classic;html=1;rounded=0;fontSize=12;startSize=8;endSize=8;curved=1;exitX=1;exitY=1;exitDx=0;exitDy=0;entryX=0.5;entryY=0;entryDx=0;entryDy=0;" edge="1" parent="1" source="L7sGw7zIHXGfX-_J5yen-5" target="L7sGw7zIHXGfX-_J5yen-16">
          <mxGeometry width="50" height="50" relative="1" as="geometry">
            <mxPoint x="116" y="140" as="sourcePoint" />
            <mxPoint x="166" y="90" as="targetPoint" />
          </mxGeometry>
        </mxCell>
        <mxCell id="L7sGw7zIHXGfX-_J5yen-19" value="" style="endArrow=classic;html=1;rounded=0;fontSize=12;startSize=8;endSize=8;curved=1;exitX=0;exitY=1;exitDx=0;exitDy=0;entryX=0.5;entryY=0;entryDx=0;entryDy=0;" edge="1" parent="1" source="L7sGw7zIHXGfX-_J5yen-5" target="L7sGw7zIHXGfX-_J5yen-15">
          <mxGeometry width="50" height="50" relative="1" as="geometry">
            <mxPoint x="116" y="140" as="sourcePoint" />
            <mxPoint x="166" y="90" as="targetPoint" />
          </mxGeometry>
        </mxCell>
        <mxCell id="L7sGw7zIHXGfX-_J5yen-21" value="" style="endArrow=classic;html=1;rounded=0;fontSize=12;startSize=8;endSize=8;curved=1;exitX=1;exitY=1;exitDx=0;exitDy=0;entryX=0.5;entryY=0;entryDx=0;entryDy=0;" edge="1" parent="1" source="L7sGw7zIHXGfX-_J5yen-2" target="L7sGw7zIHXGfX-_J5yen-14">
          <mxGeometry width="50" height="50" relative="1" as="geometry">
            <mxPoint x="116" y="140" as="sourcePoint" />
            <mxPoint x="166" y="90" as="targetPoint" />
          </mxGeometry>
        </mxCell>
        <mxCell id="L7sGw7zIHXGfX-_J5yen-22" value="" style="ellipse;whiteSpace=wrap;html=1;aspect=fixed;" vertex="1" parent="1">
          <mxGeometry x="-41" y="214" width="40" height="40" as="geometry" />
        </mxCell>
        <mxCell id="L7sGw7zIHXGfX-_J5yen-23" value="" style="ellipse;whiteSpace=wrap;html=1;aspect=fixed;" vertex="1" parent="1">
          <mxGeometry x="5" y="214" width="40" height="40" as="geometry" />
        </mxCell>
        <mxCell id="L7sGw7zIHXGfX-_J5yen-24" value="" style="ellipse;whiteSpace=wrap;html=1;aspect=fixed;" vertex="1" parent="1">
          <mxGeometry x="51" y="214" width="40" height="40" as="geometry" />
        </mxCell>
        <mxCell id="L7sGw7zIHXGfX-_J5yen-25" value="" style="ellipse;whiteSpace=wrap;html=1;aspect=fixed;" vertex="1" parent="1">
          <mxGeometry x="100" y="214" width="40" height="40" as="geometry" />
        </mxCell>
        <mxCell id="L7sGw7zIHXGfX-_J5yen-26" value="" style="ellipse;whiteSpace=wrap;html=1;aspect=fixed;" vertex="1" parent="1">
          <mxGeometry x="-228" y="214" width="40" height="40" as="geometry" />
        </mxCell>
        <mxCell id="L7sGw7zIHXGfX-_J5yen-27" value="" style="ellipse;whiteSpace=wrap;html=1;aspect=fixed;" vertex="1" parent="1">
          <mxGeometry x="-182" y="214" width="40" height="40" as="geometry" />
        </mxCell>
        <mxCell id="L7sGw7zIHXGfX-_J5yen-28" value="" style="ellipse;whiteSpace=wrap;html=1;aspect=fixed;" vertex="1" parent="1">
          <mxGeometry x="-136" y="214" width="40" height="40" as="geometry" />
        </mxCell>
        <mxCell id="L7sGw7zIHXGfX-_J5yen-29" value="" style="ellipse;whiteSpace=wrap;html=1;aspect=fixed;" vertex="1" parent="1">
          <mxGeometry x="-87" y="214" width="40" height="40" as="geometry" />
        </mxCell>
        <mxCell id="L7sGw7zIHXGfX-_J5yen-30" value="" style="endArrow=classic;html=1;rounded=0;fontSize=12;startSize=8;endSize=8;curved=1;exitX=1;exitY=1;exitDx=0;exitDy=0;entryX=0.5;entryY=0;entryDx=0;entryDy=0;" edge="1" parent="1" source="L7sGw7zIHXGfX-_J5yen-16" target="L7sGw7zIHXGfX-_J5yen-25">
          <mxGeometry width="50" height="50" relative="1" as="geometry">
            <mxPoint x="168" y="139" as="sourcePoint" />
            <mxPoint x="218" y="89" as="targetPoint" />
          </mxGeometry>
        </mxCell>
        <mxCell id="L7sGw7zIHXGfX-_J5yen-35" value="" style="endArrow=classic;html=1;rounded=0;fontSize=12;startSize=8;endSize=8;curved=1;exitX=0.5;exitY=1;exitDx=0;exitDy=0;entryX=0.5;entryY=0;entryDx=0;entryDy=0;" edge="1" parent="1" source="L7sGw7zIHXGfX-_J5yen-16" target="L7sGw7zIHXGfX-_J5yen-24">
          <mxGeometry width="50" height="50" relative="1" as="geometry">
            <mxPoint x="168" y="139" as="sourcePoint" />
            <mxPoint x="218" y="89" as="targetPoint" />
          </mxGeometry>
        </mxCell>
        <mxCell id="L7sGw7zIHXGfX-_J5yen-36" value="" style="endArrow=classic;html=1;rounded=0;fontSize=12;startSize=8;endSize=8;curved=1;exitX=1;exitY=1;exitDx=0;exitDy=0;entryX=0.5;entryY=0;entryDx=0;entryDy=0;" edge="1" parent="1" source="L7sGw7zIHXGfX-_J5yen-15" target="L7sGw7zIHXGfX-_J5yen-23">
          <mxGeometry width="50" height="50" relative="1" as="geometry">
            <mxPoint x="168" y="139" as="sourcePoint" />
            <mxPoint x="218" y="89" as="targetPoint" />
          </mxGeometry>
        </mxCell>
        <mxCell id="L7sGw7zIHXGfX-_J5yen-41" value="" style="endArrow=classic;html=1;rounded=0;fontSize=12;startSize=8;endSize=8;curved=1;exitX=0;exitY=1;exitDx=0;exitDy=0;entryX=0.5;entryY=0;entryDx=0;entryDy=0;" edge="1" parent="1" source="L7sGw7zIHXGfX-_J5yen-15" target="L7sGw7zIHXGfX-_J5yen-22">
          <mxGeometry width="50" height="50" relative="1" as="geometry">
            <mxPoint x="168" y="139" as="sourcePoint" />
            <mxPoint x="218" y="89" as="targetPoint" />
          </mxGeometry>
        </mxCell>
        <mxCell id="L7sGw7zIHXGfX-_J5yen-46" value="" style="endArrow=classic;html=1;rounded=0;fontSize=12;startSize=8;endSize=8;curved=1;exitX=1;exitY=1;exitDx=0;exitDy=0;entryX=0.5;entryY=0;entryDx=0;entryDy=0;" edge="1" parent="1" source="L7sGw7zIHXGfX-_J5yen-14" target="L7sGw7zIHXGfX-_J5yen-29">
          <mxGeometry width="50" height="50" relative="1" as="geometry">
            <mxPoint x="168" y="139" as="sourcePoint" />
            <mxPoint x="218" y="89" as="targetPoint" />
          </mxGeometry>
        </mxCell>
        <mxCell id="L7sGw7zIHXGfX-_J5yen-47" value="" style="endArrow=classic;html=1;rounded=0;fontSize=12;startSize=8;endSize=8;curved=1;exitX=0;exitY=1;exitDx=0;exitDy=0;entryX=0.5;entryY=0;entryDx=0;entryDy=0;" edge="1" parent="1" source="L7sGw7zIHXGfX-_J5yen-14" target="L7sGw7zIHXGfX-_J5yen-28">
          <mxGeometry width="50" height="50" relative="1" as="geometry">
            <mxPoint x="168" y="139" as="sourcePoint" />
            <mxPoint x="218" y="89" as="targetPoint" />
          </mxGeometry>
        </mxCell>
        <mxCell id="L7sGw7zIHXGfX-_J5yen-48" value="" style="endArrow=classic;html=1;rounded=0;fontSize=12;startSize=8;endSize=8;curved=1;exitX=0.5;exitY=1;exitDx=0;exitDy=0;entryX=0.5;entryY=0;entryDx=0;entryDy=0;" edge="1" parent="1" source="L7sGw7zIHXGfX-_J5yen-13" target="L7sGw7zIHXGfX-_J5yen-27">
          <mxGeometry width="50" height="50" relative="1" as="geometry">
            <mxPoint x="168" y="139" as="sourcePoint" />
            <mxPoint x="218" y="89" as="targetPoint" />
          </mxGeometry>
        </mxCell>
        <mxCell id="L7sGw7zIHXGfX-_J5yen-49" value="" style="endArrow=classic;html=1;rounded=0;fontSize=12;startSize=8;endSize=8;curved=1;exitX=0;exitY=1;exitDx=0;exitDy=0;entryX=0.5;entryY=0;entryDx=0;entryDy=0;" edge="1" parent="1" source="L7sGw7zIHXGfX-_J5yen-13" target="L7sGw7zIHXGfX-_J5yen-26">
          <mxGeometry width="50" height="50" relative="1" as="geometry">
            <mxPoint x="168" y="139" as="sourcePoint" />
            <mxPoint x="218" y="89" as="targetPoint" />
          </mxGeometry>
        </mxCell>
        <mxCell id="L7sGw7zIHXGfX-_J5yen-50" value="" style="ellipse;whiteSpace=wrap;html=1;aspect=fixed;" vertex="1" parent="1">
          <mxGeometry x="268" y="77" width="40" height="40" as="geometry" />
        </mxCell>
        <mxCell id="L7sGw7zIHXGfX-_J5yen-51" value="" style="ellipse;whiteSpace=wrap;html=1;aspect=fixed;" vertex="1" parent="1">
          <mxGeometry x="228" y="158" width="40" height="40" as="geometry" />
        </mxCell>
        <mxCell id="L7sGw7zIHXGfX-_J5yen-52" value="" style="ellipse;whiteSpace=wrap;html=1;aspect=fixed;" vertex="1" parent="1">
          <mxGeometry x="308" y="158" width="40" height="40" as="geometry" />
        </mxCell>
        <mxCell id="L7sGw7zIHXGfX-_J5yen-53" value="" style="endArrow=classic;html=1;rounded=0;fontSize=12;startSize=8;endSize=8;curved=1;exitX=1;exitY=1;exitDx=0;exitDy=0;entryX=0.5;entryY=0;entryDx=0;entryDy=0;" edge="1" parent="1" source="L7sGw7zIHXGfX-_J5yen-50" target="L7sGw7zIHXGfX-_J5yen-52">
          <mxGeometry width="50" height="50" relative="1" as="geometry">
            <mxPoint x="357" y="140" as="sourcePoint" />
            <mxPoint x="407" y="90" as="targetPoint" />
          </mxGeometry>
        </mxCell>
        <mxCell id="L7sGw7zIHXGfX-_J5yen-54" value="" style="endArrow=classic;html=1;rounded=0;fontSize=12;startSize=8;endSize=8;curved=1;exitX=0;exitY=1;exitDx=0;exitDy=0;entryX=0.5;entryY=0;entryDx=0;entryDy=0;" edge="1" parent="1" source="L7sGw7zIHXGfX-_J5yen-50" target="L7sGw7zIHXGfX-_J5yen-51">
          <mxGeometry width="50" height="50" relative="1" as="geometry">
            <mxPoint x="357" y="140" as="sourcePoint" />
            <mxPoint x="407" y="90" as="targetPoint" />
          </mxGeometry>
        </mxCell>
        <mxCell id="L7sGw7zIHXGfX-_J5yen-55" value="" style="ellipse;whiteSpace=wrap;html=1;aspect=fixed;" vertex="1" parent="1">
          <mxGeometry x="200" y="214" width="40" height="40" as="geometry" />
        </mxCell>
        <mxCell id="L7sGw7zIHXGfX-_J5yen-56" value="" style="ellipse;whiteSpace=wrap;html=1;aspect=fixed;" vertex="1" parent="1">
          <mxGeometry x="246" y="214" width="40" height="40" as="geometry" />
        </mxCell>
        <mxCell id="L7sGw7zIHXGfX-_J5yen-57" value="" style="ellipse;whiteSpace=wrap;html=1;aspect=fixed;" vertex="1" parent="1">
          <mxGeometry x="292" y="214" width="40" height="40" as="geometry" />
        </mxCell>
        <mxCell id="L7sGw7zIHXGfX-_J5yen-58" value="" style="ellipse;whiteSpace=wrap;html=1;aspect=fixed;" vertex="1" parent="1">
          <mxGeometry x="341" y="214" width="40" height="40" as="geometry" />
        </mxCell>
        <mxCell id="L7sGw7zIHXGfX-_J5yen-59" value="" style="endArrow=classic;html=1;rounded=0;fontSize=12;startSize=8;endSize=8;curved=1;exitX=1;exitY=1;exitDx=0;exitDy=0;entryX=0.5;entryY=0;entryDx=0;entryDy=0;" edge="1" parent="1" source="L7sGw7zIHXGfX-_J5yen-52" target="L7sGw7zIHXGfX-_J5yen-58">
          <mxGeometry width="50" height="50" relative="1" as="geometry">
            <mxPoint x="409" y="139" as="sourcePoint" />
            <mxPoint x="459" y="89" as="targetPoint" />
          </mxGeometry>
        </mxCell>
        <mxCell id="L7sGw7zIHXGfX-_J5yen-60" value="" style="endArrow=classic;html=1;rounded=0;fontSize=12;startSize=8;endSize=8;curved=1;exitX=0.5;exitY=1;exitDx=0;exitDy=0;entryX=0.5;entryY=0;entryDx=0;entryDy=0;" edge="1" parent="1" source="L7sGw7zIHXGfX-_J5yen-52" target="L7sGw7zIHXGfX-_J5yen-57">
          <mxGeometry width="50" height="50" relative="1" as="geometry">
            <mxPoint x="409" y="139" as="sourcePoint" />
            <mxPoint x="459" y="89" as="targetPoint" />
          </mxGeometry>
        </mxCell>
        <mxCell id="L7sGw7zIHXGfX-_J5yen-61" value="" style="endArrow=classic;html=1;rounded=0;fontSize=12;startSize=8;endSize=8;curved=1;exitX=1;exitY=1;exitDx=0;exitDy=0;entryX=0.5;entryY=0;entryDx=0;entryDy=0;" edge="1" parent="1" source="L7sGw7zIHXGfX-_J5yen-51" target="L7sGw7zIHXGfX-_J5yen-56">
          <mxGeometry width="50" height="50" relative="1" as="geometry">
            <mxPoint x="409" y="139" as="sourcePoint" />
            <mxPoint x="459" y="89" as="targetPoint" />
          </mxGeometry>
        </mxCell>
        <mxCell id="L7sGw7zIHXGfX-_J5yen-62" value="" style="endArrow=classic;html=1;rounded=0;fontSize=12;startSize=8;endSize=8;curved=1;exitX=0;exitY=1;exitDx=0;exitDy=0;entryX=0.5;entryY=0;entryDx=0;entryDy=0;" edge="1" parent="1" source="L7sGw7zIHXGfX-_J5yen-51" target="L7sGw7zIHXGfX-_J5yen-55">
          <mxGeometry width="50" height="50" relative="1" as="geometry">
            <mxPoint x="409" y="139" as="sourcePoint" />
            <mxPoint x="459" y="89" as="targetPoint" />
          </mxGeometry>
        </mxCell>
        <mxCell id="L7sGw7zIHXGfX-_J5yen-63" value="" style="ellipse;whiteSpace=wrap;html=1;aspect=fixed;" vertex="1" parent="1">
          <mxGeometry x="454" y="214" width="40" height="40" as="geometry" />
        </mxCell>
      </root>
    </mxGraphModel>
  </diagram>
</mxfile>
